<?xml version="1.0" encoding="iso-8859-1"?>
<!-- Uploaded to: SVG Repo, www.svgrepo.com, Generator: SVG Repo Mixer Tools -->
<svg version="1.1" id="Layer_1" xmlns="http://www.w3.org/2000/svg" xmlns:xlink="http://www.w3.org/1999/xlink" 
	 viewBox="0 0 512 512" xml:space="preserve">
<rect x="396.749" y="84.521" style="fill:#BCC987;" width="41.817" height="83.633"/>
<path style="fill:#FFAD61;" d="M121.868,10.199c-23.858,0-43.199,19.341-43.199,43.199v405.203
	c0,23.858,19.341,43.199,43.199,43.199h15.957V10.199H121.868z"/>
<path style="fill:#FFE6B8;" d="M396.749,156.425c0-31.623,24.191-57.585,55.076-60.417v-42.61c0-23.858-19.341-43.199-43.199-43.199
	H137.825v491.602h234.38c13.556,0,24.544-10.989,24.544-24.544V156.425z"/>
<g>
	<rect x="396.749" y="168.154" style="fill:#BCC987;" width="41.817" height="66.295"/>
	<rect x="396.749" y="234.449" style="fill:#BCC987;" width="41.817" height="66.295"/>
	<rect x="396.749" y="300.744" style="fill:#BCC987;" width="41.817" height="66.295"/>
	<path style="fill:#BCC987;" d="M396.749,367.039h41.817v32.128c0,18.871-15.297,34.167-34.167,34.167h-7.649V367.039z"/>
</g>
<path style="fill:#D35B38;" d="M312.854,270.441l-6.874,1.964l-7.07,4.718l-12.626,8.425
	c-22.911-14.791-42.195-34.557-56.416-57.827l9.819-9.819l5.894-5.894l1.964-6.874l-46.158-46.158l-7.856,2.947
	c-1.66,1.66-3.204,3.395-4.636,5.188c-19.383,24.265-17.839,59.741,4.636,82.217l75.128,75.128
	c22.475,22.475,57.952,24.017,82.217,4.636c1.793-1.432,3.527-2.975,5.188-4.636l2.947-7.856L312.854,270.441z"/>
<g>
	<path style="fill:#4D3D36;" d="M448.765,106.7c1.314-0.224,2.642-0.412,3.991-0.535c5.25-0.481,9.268-4.884,9.268-10.156v-42.61
		C462.024,23.954,438.069,0,408.626,0H121.868C92.425,0,68.47,23.954,68.47,53.398v12.897h-8.295
		c-5.633,0-10.199,4.567-10.199,10.199s4.566,10.199,10.199,10.199h8.295v338.614h-8.295c-5.633,0-10.199,4.567-10.199,10.199
		c0,5.632,4.566,10.199,10.199,10.199h8.295v12.897c0,29.444,23.955,53.398,53.398,53.398h250.336
		c19.157,0,34.744-15.585,34.744-34.744v-33.801c23.281-1.327,41.817-20.68,41.817-44.288V106.7z M88.869,458.602v-12.897h5.984
		c5.633,0,10.199-4.567,10.199-10.199c0-5.632-4.566-10.199-10.199-10.199h-5.984V86.693h5.984c5.633,0,10.199-4.567,10.199-10.199
		s-4.566-10.199-10.199-10.199h-5.984V53.398c0-18.195,14.803-33,33-33h5.757v471.203h-5.757
		C103.672,491.602,88.869,476.797,88.869,458.602z M386.55,477.256c0,7.91-6.436,14.345-14.345,14.345H148.024V20.398h260.602
		c18.195,0,33,14.804,33,33v33.927c-13.934,3.174-26.629,10.514-36.435,21.199c-12.021,13.1-18.641,30.111-18.641,47.902V477.256z
		 M428.367,290.545h-21.418v-45.896h21.418V290.545z M406.948,310.943h21.418v45.896h-21.418V310.943z M428.367,224.25h-21.418
		v-45.896h21.418V224.25z M428.367,399.166c0,12.354-9.397,22.556-21.418,23.833v-45.762h21.418V399.166z M428.367,157.955h-21.418
		v-1.53c0-17.11,8.366-32.241,21.418-41.373V157.955z"/>
	<path style="fill:#4D3D36;" d="M357.246,337.057c2.118-1.693,4.147-3.506,6.03-5.388c1.03-1.03,1.828-2.269,2.339-3.633
		l2.947-7.857c1.404-3.745,0.49-7.965-2.338-10.793l-46.158-46.158c-2.619-2.618-6.451-3.614-10.014-2.595l-6.874,1.964
		c-1.016,0.29-1.981,0.737-2.86,1.324l-14.007,9.347c-16.955-11.92-31.779-26.997-43.413-44.152l9.896-9.897
		c1.226-1.225,2.118-2.743,2.595-4.409l1.964-6.874c1.018-3.562,0.024-7.394-2.595-10.014l-46.158-46.158
		c-2.828-2.826-7.047-3.741-10.794-2.338l-7.856,2.947c-1.364,0.511-2.602,1.309-3.632,2.339c-1.887,1.888-3.7,3.918-5.391,6.034
		c-22.885,28.652-20.568,69.834,5.392,95.794l75.129,75.129c14.004,14.003,32.433,21.128,50.94,21.127
		C328.191,352.793,344.049,347.599,357.246,337.057z M275.873,317.243l-75.128-75.129c-18.605-18.605-20.273-48.114-3.879-68.639
		c0.68-0.851,1.387-1.682,2.114-2.486l36.598,36.598l-12.92,12.92c-3.331,3.332-3.947,8.511-1.49,12.53
		c14.929,24.43,35.533,45.55,59.586,61.078c3.414,2.203,7.812,2.17,11.193-0.085l18.039-12.037l37.014,37.014
		c-0.803,0.726-1.634,1.433-2.486,2.113C323.987,337.516,294.479,335.849,275.873,317.243z"/>
	<path style="fill:#4D3D36;" d="M246.821,459.851h-5.1c-5.633,0-10.199,4.567-10.199,10.199c0,5.632,4.566,10.199,10.199,10.199h5.1
		c5.633,0,10.199-4.567,10.199-10.199C257.02,464.419,252.454,459.851,246.821,459.851z"/>
	<path style="fill:#4D3D36;" d="M364.112,459.851h-81.594c-5.633,0-10.199,4.567-10.199,10.199c0,5.632,4.566,10.199,10.199,10.199
		h81.594c5.633,0,10.199-4.567,10.199-10.199C374.311,464.419,369.745,459.851,364.112,459.851z"/>
</g>
</svg>